<svg version="1.1" id="Layer_1" xmlns="http://www.w3.org/2000/svg" xmlns:xlink="http://www.w3.org/1999/xlink" x="0px" y="0px"
	 width="100%" viewBox="0 0 1024 1024" enable-background="new 0 0 1024 1024" xml:space="preserve">
<path fill="#000000" opacity="1.000000" stroke="none" 
	d="
M862.125488,506.623474 
	C859.210144,491.687103 856.713257,477.094116 853.518433,462.655579 
	C851.260437,452.451447 846.777649,443.177704 839.021057,435.763947 
	C834.298401,431.250031 828.828552,428.357635 822.400024,427.241455 
	C821.417969,427.070953 820.464050,426.740173 819.482849,426.562561 
	C817.247864,426.157990 815.531311,425.046204 815.987610,422.603119 
	C816.440186,420.179932 818.598083,419.725830 820.711670,419.982941 
	C826.058228,420.633270 831.076477,422.314667 835.766907,425.005920 
	C848.828369,432.500092 855.238159,444.715607 859.279053,458.471588 
	C864.115906,474.937439 865.712708,492.076355 869.341003,508.792938 
	C874.496948,532.547363 880.296875,556.141235 890.460938,578.376099 
	C893.512451,585.051514 897.429810,591.259338 901.634460,597.290894 
	C903.296936,599.675842 905.048767,600.532288 907.919067,599.638977 
	C914.857117,597.479736 922.048767,597.796448 929.211609,597.579712 
	C934.338318,597.424561 936.497375,599.834900 937.124390,604.458496 
	C938.508972,614.668823 939.864258,624.883484 941.338440,635.080872 
	C941.788513,638.193909 942.453003,641.291992 943.256226,644.334351 
	C944.782349,650.114868 944.382629,651.288086 938.457092,651.879517 
	C920.509216,653.670837 904.298096,660.511536 888.697144,668.897949 
	C872.023987,677.860657 857.304321,689.619263 843.422913,702.415894 
	C834.847900,710.320801 826.247314,718.222229 818.630798,727.082520 
	C815.362793,730.884155 811.588928,732.968506 806.566467,734.120789 
	C796.359192,736.462708 786.360779,739.562622 775.828064,740.493835 
	C758.011658,742.069153 740.195435,741.412170 722.390137,740.805664 
	C707.420227,740.295715 692.454773,739.388428 677.517395,738.259216 
	C660.602905,736.980530 643.731201,735.147095 626.824341,733.756348 
	C603.435791,731.832336 580.235596,728.403748 556.976624,725.424805 
	C553.818848,725.020325 550.616882,723.248474 546.477844,725.237122 
	C551.092224,733.076904 555.484619,740.846802 560.172546,748.434021 
	C567.640930,760.521240 575.669373,772.160217 587.510803,780.568848 
	C591.114624,783.128052 589.029175,784.906738 586.382385,786.460815 
	C570.265686,795.923523 553.564392,804.150085 536.173462,811.051331 
	C509.403198,821.674744 481.945007,830.511230 455.587952,842.202271 
	C444.152100,847.274841 433.058411,853.019348 422.252258,859.292297 
	C418.113739,861.694702 416.098907,860.588501 414.206024,856.537537 
	C407.757324,842.736633 403.004150,828.358459 400.114990,813.462708 
	C399.231659,808.908752 397.043915,807.376709 393.256561,806.357361 
	C374.784851,801.385864 356.329071,796.355103 337.874573,791.320068 
	C288.293335,777.792480 238.707108,764.282715 189.156021,750.645447 
	C185.977005,749.770508 181.245728,750.263550 180.377136,746.168823 
	C179.578445,742.403503 183.904022,740.945129 186.250137,738.798340 
	C193.009186,732.613464 199.848221,726.505676 206.865341,720.617371 
	C210.426727,717.628845 210.855667,715.634827 207.193497,712.022095 
	C189.004242,694.078613 169.865250,677.321045 148.688538,662.960327 
	C143.558212,659.481201 138.928986,655.449951 135.199677,650.434814 
	C132.665329,647.026672 132.939880,644.554504 136.984360,642.496826 
	C146.633835,637.587646 156.189957,632.493958 165.753235,627.417297 
	C167.305298,626.593323 169.286789,626.271057 170.125595,624.187622 
	C168.710464,621.453430 166.005295,619.973022 163.758499,618.078186 
	C134.509079,593.411072 110.021942,564.933472 93.310982,530.221069 
	C88.458313,520.141052 84.574890,509.696869 81.896820,498.826538 
	C80.266129,492.207550 80.636154,491.511719 87.323204,489.899109 
	C120.850632,481.813660 152.772079,469.446442 183.345856,453.608582 
	C207.812057,440.934631 230.956192,426.179779 252.494827,408.907745 
	C263.455200,400.118469 263.428894,399.158783 267.846375,413.045197 
	C275.854889,438.220032 289.857880,459.962616 308.768494,478.477112 
	C308.837433,478.544617 309.067535,478.447479 309.503143,478.390442 
	C304.447784,459.952606 299.277008,441.584351 294.381317,423.143066 
	C281.539246,374.768951 268.903168,326.340240 258.200592,277.435883 
	C255.709946,266.055176 253.504700,254.581284 255.231689,242.822845 
	C257.806427,225.292282 267.416718,212.683533 282.279388,203.458481 
	C298.609161,193.322830 316.480286,188.219040 335.331299,185.661102 
	C362.679535,181.950180 389.958008,177.710754 417.331329,174.205154 
	C433.161713,172.177811 449.111084,171.043777 465.023132,169.700104 
	C480.278198,168.411896 495.554382,167.374283 510.821014,166.222809 
	C535.632812,164.351425 554.068359,172.318710 564.063293,196.599701 
	C572.138184,216.216125 576.213989,237.044128 582.224487,257.285706 
	C592.024414,290.289093 601.578735,323.365387 611.246460,356.408081 
	C611.654053,357.801086 612.160461,359.165192 612.874634,361.302002 
	C617.880127,352.653595 622.375061,344.549835 627.199890,336.647522 
	C631.856201,329.021210 638.362549,325.819946 645.418884,327.164276 
	C658.774048,329.708618 664.905640,340.984558 660.639648,354.944519 
	C659.263977,359.446411 656.493896,363.260590 654.700623,367.291565 
	C655.205444,369.001007 656.508240,369.171539 657.584961,369.316742 
	C686.009460,373.149414 705.487549,390.232483 721.504883,412.429718 
	C725.209839,417.564117 728.867615,422.746979 731.539429,428.523529 
	C732.364807,430.308167 733.525757,432.670654 731.475098,433.943604 
	C729.213745,435.347351 727.942749,432.849579 726.800476,431.348022 
	C720.446167,422.994598 714.365173,414.427094 707.841003,406.210419 
	C695.848633,391.106873 680.657349,380.852753 661.577393,376.825653 
	C660.281006,376.552032 658.926453,376.550964 657.632568,376.268890 
	C651.492737,374.930542 647.880737,377.497009 644.873718,382.935791 
	C638.590393,394.300385 631.616821,405.282837 624.962769,416.443726 
	C624.307861,417.542206 623.174194,418.469849 623.417480,420.385071 
	C630.073181,418.615906 636.750427,417.577087 643.476318,419.759399 
	C649.465393,421.702728 655.086426,424.480286 658.668396,429.753845 
	C672.848145,450.629883 685.889160,472.131958 690.785950,497.390320 
	C693.126160,509.461578 691.783447,521.312073 686.265442,532.402893 
	C678.314026,548.384521 659.095642,554.233337 641.487488,546.365356 
	C631.448242,541.879456 623.130005,534.963440 614.913818,527.893799 
	C602.611633,517.308533 589.398987,508.585632 572.710632,506.793243 
	C564.899902,505.954315 557.082825,505.553925 549.372009,507.471527 
	C536.205566,510.745819 532.203308,520.724182 539.624207,532.130554 
	C543.904236,538.709290 548.769104,544.933594 555.099854,549.680969 
	C579.293945,567.823914 601.606506,587.995544 622.054688,610.294678 
	C643.369263,633.538635 670.446594,646.793762 700.535217,654.722046 
	C719.197571,659.639587 737.920776,664.368774 755.829041,671.804993 
	C764.192444,675.277832 772.075928,679.451294 779.811096,685.626892 
	C813.148376,647.003723 855.033936,622.701965 904.582275,611.906738 
	C904.582275,611.184143 904.718628,610.737427 904.562988,610.580627 
	C886.893799,592.786377 878.696472,570.122009 871.900513,546.786987 
	C868.085999,533.689087 864.915894,520.417419 862.125488,506.623474 
M580.585754,275.770325 
	C575.960571,259.442291 571.258850,243.135406 566.736572,226.778915 
	C563.630981,215.546280 560.793213,204.257309 555.222656,193.873276 
	C549.728394,183.631516 541.781738,176.661819 530.294556,173.963318 
	C525.691406,172.881958 521.036926,172.937637 516.390747,173.025177 
	C497.074127,173.389053 477.875549,175.501556 458.631470,176.975418 
	C440.050995,178.398468 421.544159,180.503891 403.066162,182.785095 
	C382.941071,185.269638 362.878693,188.294876 342.829498,191.350357 
	C329.532410,193.376831 316.103027,194.973175 303.620758,200.579666 
	C291.993622,205.802124 286.872681,215.078506 286.246033,227.453644 
	C285.870758,234.864288 287.102570,242.065842 288.591614,249.216431 
	C302.833496,317.607666 321.208099,384.950592 340.463867,452.057220 
	C353.354279,496.980408 367.174957,541.629517 381.585419,586.088013 
	C386.503021,601.259644 390.498810,616.756470 397.547974,631.222168 
	C406.359924,649.305359 421.200592,658.429138 440.442444,661.731445 
	C456.858154,664.548523 473.319702,663.517151 489.755829,662.502747 
	C501.867889,661.755188 513.958191,660.487976 526.018250,659.104248 
	C543.194092,657.133484 560.332275,654.835510 577.488464,652.692627 
	C596.952759,650.261475 616.432129,647.945068 635.873657,645.344727 
	C639.842102,644.813904 644.194458,644.431946 647.121521,640.576355 
	C646.601379,639.976379 646.266174,639.362854 645.750305,639.027466 
	C626.383667,626.436829 611.298645,609.189453 595.593689,592.661682 
	C580.824158,577.118286 562.559143,565.890930 546.507690,551.339539 
	C537.704956,561.211609 526.914978,567.489075 515.799011,573.216431 
	C510.038635,576.184387 506.005981,573.511414 505.723816,567.052795 
	C505.581116,563.786133 506.315094,560.461548 505.349121,557.098389 
	C499.603912,556.983887 494.247406,558.087891 488.867859,559.036682 
	C486.485748,559.456787 483.772400,559.617859 483.102142,556.676514 
	C482.374176,553.482239 485.009888,552.982849 487.445343,552.601318 
	C492.532990,551.804382 497.614410,550.965332 502.689514,550.091736 
	C504.709198,549.744019 506.468994,549.269653 506.699432,546.548645 
	C507.574890,536.211731 512.971680,527.744385 518.289978,519.258606 
	C521.582214,514.005615 525.442871,509.087189 528.298462,503.074677 
	C526.948303,503.222198 526.123901,503.265167 525.317017,503.407410 
	C508.791534,506.320038 492.281708,509.326202 475.729248,512.075745 
	C473.281891,512.482300 469.404053,514.123413 468.693756,509.903961 
	C467.997467,505.767700 471.782654,506.060547 474.511139,505.600189 
	C487.621460,503.388000 500.692261,500.904053 513.850159,499.029388 
	C519.540405,498.218628 525.281006,495.130585 531.229797,498.769958 
	C534.335144,493.676727 537.240234,488.911835 540.131409,484.169861 
	C538.442993,482.948944 537.087219,483.301819 535.822327,483.500000 
	C513.989197,486.921082 492.161926,490.379211 470.333252,493.828461 
	C467.721436,494.241180 464.427612,495.291748 463.793610,491.569336 
	C463.123383,487.633942 466.724457,487.962128 469.270660,487.547821 
	C493.385132,483.623810 517.470276,479.502045 541.634766,475.915222 
	C547.469666,475.049133 548.217712,470.895111 550.394897,467.028931 
	C549.238403,466.528259 548.495056,466.188446 547.738281,465.881470 
	C530.400940,458.848785 527.324463,444.463318 540.831055,431.641937 
	C557.505859,415.812988 574.542847,400.414917 594.679749,388.842102 
	C601.853943,384.719025 603.918396,376.516388 607.307312,369.547607 
	C607.710022,368.719482 607.042725,367.303223 606.724304,366.202148 
	C598.083191,336.317963 589.422852,306.439301 580.585754,275.770325 
M225.393692,655.057495 
	C231.266708,658.858948 237.145615,662.651367 243.011414,666.463928 
	C253.219238,673.098633 253.150742,673.049500 260.912476,663.737854 
	C278.790771,642.289307 292.950500,618.707458 301.851440,592.157471 
	C308.834503,571.328308 312.494354,550.029175 310.924835,527.914978 
	C310.261108,518.562805 308.461151,509.474762 306.536041,500.372986 
	C305.780670,496.801849 306.802917,495.191071 310.574249,495.876038 
	C311.520203,496.047821 312.485077,496.647583 313.471649,495.519165 
	C313.636993,492.600006 312.368652,490.377472 309.994568,488.425903 
	C296.059296,476.970734 285.051270,463.071014 276.023193,447.515594 
	C269.501678,436.279022 264.094360,424.542023 259.922638,411.711334 
	C208.784668,452.865784 151.363022,480.414459 88.399452,496.709839 
	C88.689316,498.120819 88.786255,498.766022 88.957664,499.390808 
	C89.309532,500.673279 89.679474,501.951691 90.079842,503.219818 
	C100.316299,535.644714 118.428162,563.327271 141.542130,587.883057 
	C166.148804,614.024658 195.197327,634.701477 225.393692,655.057495 
M484.462036,714.241760 
	C465.025452,710.580200 445.627167,706.698486 426.142761,703.312073 
	C400.896118,698.924133 382.117706,685.861023 369.243195,663.587524 
	C359.140045,646.108582 352.612427,627.298523 346.697601,608.211914 
	C336.749237,576.109741 327.744324,543.729553 318.683960,511.367310 
	C318.021973,509.002716 317.932739,506.179626 315.442322,504.607605 
	C313.865082,506.003143 314.649719,507.265717 314.952545,508.508942 
	C318.824036,524.403320 319.190430,540.518372 317.097595,556.617004 
	C312.654877,590.792236 299.964508,621.813232 280.078766,649.883911 
	C258.089203,680.924316 231.808121,708.017151 203.185608,732.934875 
	C199.249161,736.361755 195.493546,739.996399 191.487137,743.688782 
	C194.310059,745.580872 196.978638,745.952515 199.504501,746.644714 
	C241.864243,758.253479 284.222992,769.866272 326.605133,781.392944 
	C362.081360,791.041382 397.584351,800.591675 433.082611,810.158936 
	C443.050385,812.845337 445.754944,811.968079 451.831635,803.668335 
	C469.367920,779.716736 485.251221,754.674866 500.484863,729.219055 
	C502.565094,725.742920 505.053772,722.361694 506.156952,717.853882 
	C499.001312,716.650574 492.159851,715.500061 484.462036,714.241760 
M358.548981,535.835571 
	C355.944763,527.411804 353.280762,519.005920 350.745636,510.561401 
	C326.259796,428.998444 302.994446,347.107056 284.741333,263.877655 
	C281.010986,246.868256 276.331970,229.871109 282.396057,211.810165 
	C281.282074,212.471603 280.694916,212.745468 280.195801,213.132797 
	C279.277832,213.845154 278.391907,214.602203 277.526917,215.378860 
	C261.991791,229.327454 258.709930,246.905182 262.836792,266.419159 
	C268.716187,294.220062 275.340454,321.848175 282.261017,349.413452 
	C301.087189,424.400085 322.113495,498.783356 343.318359,573.116333 
	C350.160583,597.101624 356.881653,621.161133 367.026001,644.069397 
	C372.809845,657.130554 379.989746,669.222168 390.196136,679.358521 
	C392.090149,681.239502 393.867615,682.673279 396.643738,680.605103 
	C403.157013,675.752869 408.622314,670.077332 412.178497,662.655823 
	C413.238800,660.443115 413.015564,659.059692 410.969360,657.626343 
	C398.102570,648.613647 390.958923,635.631531 385.878021,621.221313 
	C376.024963,593.276917 367.869965,564.788757 358.548981,535.835571 
M864.090881,676.545898 
	C885.898865,661.149963 909.256775,649.240051 936.396240,645.231201 
	C933.634033,632.387878 932.570618,619.982361 930.859253,607.664673 
	C930.609314,605.865845 930.179626,604.371704 927.976257,604.328979 
	C922.381653,604.220398 916.771423,603.973389 911.257874,605.952271 
	C912.123352,608.322144 914.040100,609.080750 915.719727,610.048889 
	C917.579529,611.120789 920.113220,611.874634 919.358154,614.639526 
	C918.667908,617.167358 916.108337,617.027771 913.973938,617.339844 
	C906.404907,618.446228 898.892700,619.880432 891.535217,621.979431 
	C852.182495,633.206482 818.415710,653.557129 790.771057,683.858765 
	C787.296082,687.667786 783.896790,691.545959 780.409668,695.343628 
	C779.255493,696.600586 777.859863,697.664001 776.016846,696.818542 
	C774.300720,696.031311 773.662598,694.701904 774.142151,692.735352 
	C775.086426,688.862610 771.949707,688.634766 769.472534,687.483826 
	C766.287109,691.871582 765.922363,696.915100 764.728882,701.692993 
	C763.599670,706.213379 765.148438,708.816162 769.542053,710.535828 
	C781.929077,715.384216 794.540100,719.753784 806.264465,726.135681 
	C809.067871,727.661621 810.071411,725.966370 811.577148,724.367920 
	C827.692383,707.259460 844.549011,690.957886 864.090881,676.545898 
M521.705994,666.342712 
	C506.357880,668.429016 490.895569,669.272339 475.453918,670.010315 
	C457.627899,670.862305 439.788879,670.617554 422.775879,664.018555 
	C420.157928,663.003113 419.127350,664.003113 418.216034,666.124146 
	C415.939880,671.421753 412.439178,675.832397 408.192535,679.678894 
	C405.783112,681.861267 403.351288,684.019043 400.997955,686.126648 
	C402.177155,688.136902 403.883667,688.477295 405.369659,689.174011 
	C424.961792,698.360107 445.823914,696.398315 466.339600,695.319946 
	C487.734528,694.195374 509.035858,691.427917 530.324036,688.810181 
	C558.851868,685.302429 587.446289,682.293579 615.667725,676.667908 
	C626.819214,674.445007 637.685913,671.367310 647.163269,664.701355 
	C652.098083,661.230408 655.514038,656.601074 657.305115,650.847351 
	C657.839905,649.129272 658.336304,647.178162 656.594910,645.759705 
	C654.790527,644.290039 653.208008,645.287720 651.651978,646.407898 
	C646.354675,650.221436 640.290588,651.647705 633.907349,652.378723 
	C619.546631,654.023193 605.176941,655.646790 590.870422,657.694458 
	C568.163208,660.944641 545.399170,663.703918 521.705994,666.342712 
M609.568604,380.976105 
	C585.293152,422.668762 561.032166,464.369873 535.954407,505.708435 
	C544.084412,500.708313 552.944031,499.326874 561.998535,499.131226 
	C565.688660,499.051514 567.642822,497.497162 569.442444,494.506653 
	C578.796753,478.961792 588.380371,463.555054 597.798218,448.048126 
	C613.873291,421.579803 629.975769,395.127258 645.856079,368.542236 
	C649.667297,362.161865 653.953735,355.867767 655.021240,348.196533 
	C655.840881,342.306091 653.018127,337.005920 647.843628,334.698547 
	C642.292358,332.223114 638.283630,333.382843 633.956604,338.872131 
	C632.727234,340.431671 631.683838,342.155762 630.696228,343.884949 
	C623.760986,356.027863 616.862732,368.191833 609.568604,380.976105 
M603.482300,510.920990 
	C611.671692,516.105469 618.903931,522.528564 626.405273,528.605774 
	C633.426514,534.294006 640.782227,539.410400 649.672363,541.831787 
	C652.081360,542.487915 654.928101,543.789001 656.805542,541.999268 
	C658.931030,539.973145 656.719788,537.292053 656.008301,535.059753 
	C645.349365,501.618408 634.606201,468.203918 623.821472,434.802948 
	C623.204041,432.890869 623.432617,429.863647 620.684448,429.755615 
	C618.376038,429.664917 616.383179,431.387848 615.001892,433.380371 
	C613.674438,435.295105 612.402832,437.252777 611.192200,439.243622 
	C600.725586,456.456390 590.247437,473.662384 579.856445,490.920807 
	C578.185852,493.695587 575.843750,496.149109 574.917358,499.986725 
	C584.929321,502.074066 594.407288,505.020386 603.482300,510.920990 
M684.458984,515.802490 
	C685.461975,505.558044 684.206055,495.652222 680.925110,485.841827 
	C675.915100,470.861084 667.808899,457.496674 660.035400,443.931793 
	C657.709961,439.873932 655.158447,435.972748 651.963440,432.552551 
	C645.781921,425.935150 635.558838,423.519073 628.419678,427.301697 
	C640.141663,465.526978 654.104248,503.160461 664.806091,541.979919 
	C667.688904,541.335266 669.864746,540.236572 671.908508,538.747375 
	C679.426025,533.269531 682.478577,525.326233 684.458984,515.802490 
M552.602173,430.113434 
	C550.047607,432.500641 547.430664,434.825104 544.949707,437.286438 
	C536.261353,445.905823 537.734863,453.912384 548.762390,459.301788 
	C552.683960,461.218353 554.935669,460.559113 557.180481,456.605072 
	C563.838196,444.877655 570.974487,433.423096 577.804382,421.791840 
	C581.785950,415.011322 585.538879,408.096588 589.394714,401.242279 
	C575.766541,409.083069 564.238098,419.104095 552.602173,430.113434 
M518.003784,533.498352 
	C512.588928,543.761536 512.831299,554.702271 513.572876,566.517944 
	C522.364014,561.808411 530.148560,557.189819 537.054993,551.128235 
	C540.528015,548.080017 541.145630,545.680237 537.917297,541.613831 
	C531.211914,533.167725 525.604187,524.056030 530.691040,512.432007 
	C526.570374,519.230713 522.449768,526.029480 518.003784,533.498352 
z"/>
<path fill="#000000" opacity="1.000000" stroke="none" 
	d="
M232.307480,309.259644 
	C235.962021,306.744019 238.806900,303.488098 243.373108,303.032654 
	C245.392136,306.398254 242.868149,308.150848 241.013641,309.765869 
	C231.432938,318.109375 222.721283,327.223206 215.256348,337.531708 
	C209.870407,344.969269 205.221954,352.835815 200.816483,360.877563 
	C199.281906,363.678833 199.864487,365.123688 202.388977,366.965668 
	C212.841202,374.591919 214.297440,384.698853 206.590729,395.049652 
	C204.610626,397.709106 202.455688,400.301178 200.036911,402.554871 
	C197.201920,405.196503 193.648148,406.289551 189.860489,404.826935 
	C186.066162,403.361755 185.147766,399.833038 184.777512,396.291504 
	C184.057327,389.402618 185.199081,382.702942 187.310425,376.140259 
	C187.966965,374.099487 188.494431,372.017151 189.138657,369.751007 
	C185.536087,367.696869 182.071594,368.983002 178.907990,369.909851 
	C162.220200,374.798767 151.135590,386.453217 142.710571,400.968689 
	C136.876312,411.020477 132.992142,421.750397 133.077759,433.622803 
	C133.095230,436.047241 132.469650,438.669952 129.394958,438.555908 
	C126.255737,438.439484 125.983566,435.687103 126.169960,433.324188 
	C128.290833,406.438385 140.231415,385.129608 162.615356,369.905548 
	C170.541275,364.514862 179.296204,361.571350 189.011093,362.621979 
	C192.481812,362.997345 193.529236,360.965363 194.792358,358.403564 
	C204.019821,339.689026 215.871338,322.942352 232.307480,309.259644 
M193.296875,379.791931 
	C192.012482,385.929138 189.631927,392.065094 192.991409,398.887115 
	C199.609253,394.476593 203.885345,389.002319 204.364777,381.716919 
	C204.673111,377.031738 201.514236,373.489532 196.910980,371.723999 
	C194.624771,373.799896 194.377548,376.562378 193.296875,379.791931 
z"/>
<path fill="#000000" opacity="1.000000" stroke="none" 
	d="
M737.845032,413.030914 
	C735.305908,413.477020 733.160706,413.762451 731.070862,414.273956 
	C728.919800,414.800476 726.889160,414.876221 726.139954,412.406250 
	C725.370911,409.870697 727.408508,408.687256 729.291138,408.082001 
	C738.293640,405.187653 747.248169,404.597961 755.884766,409.412720 
	C763.397278,413.600800 767.973511,420.728973 773.361328,427.030304 
	C774.424561,428.273773 774.453430,429.824036 773.221924,431.116394 
	C771.873596,432.531281 770.431763,431.836823 769.133850,431.063324 
	C765.613281,428.965302 763.287720,425.641571 760.793762,422.540039 
	C754.968994,415.296387 747.964111,411.005890 737.845032,413.030914 
z"/>
<path fill="#000000" opacity="1.000000" stroke="none" 
	d="
M713.168884,262.164185 
	C715.196655,261.206268 716.823303,261.359192 717.825684,263.058563 
	C718.791565,264.696198 718.215698,266.322510 717.007202,267.640137 
	C706.093079,279.540619 695.711121,291.942963 683.822205,302.925018 
	C682.593079,304.060425 681.148132,305.386749 679.488159,303.888519 
	C678.046082,302.587006 679.100403,300.965149 679.899597,299.819672 
	C681.895630,296.958374 683.967957,294.117279 686.298645,291.528198 
	C695.097534,281.753601 704.011414,272.082611 713.168884,262.164185 
z"/>
<path fill="#000000" opacity="1.000000" stroke="none" 
	d="
M738.438232,326.500000 
	C729.036682,331.564941 720.262634,337.048187 710.674683,340.947571 
	C709.107849,341.584839 707.058594,343.260223 705.738098,341.181915 
	C704.394043,339.066437 706.691650,337.981720 708.097107,336.956757 
	C720.112427,328.194336 733.508118,321.752106 746.318665,314.326233 
	C748.092712,313.297821 749.952759,313.418793 751.084900,315.384796 
	C752.237427,317.386139 751.240906,319.003021 749.547485,320.045868 
	C746.005981,322.226807 742.360962,324.239532 738.438232,326.500000 
z"/>
<path fill="#000000" opacity="1.000000" stroke="none" 
	d="
M801.059570,429.950439 
	C795.087585,422.941986 788.312683,418.363464 778.960022,418.791290 
	C776.775696,418.891235 774.374695,418.491821 774.486389,415.425140 
	C774.587524,412.649841 776.706665,411.894379 778.994019,411.780853 
	C786.640259,411.401428 793.374634,414.018005 799.284912,418.644409 
	C804.312988,422.580261 807.911255,427.815765 811.164368,433.242065 
	C812.374512,435.260468 813.460938,437.852081 810.885071,439.427704 
	C808.358521,440.973114 807.080261,438.392670 805.828186,436.750458 
	C804.222839,434.644836 802.797485,432.401978 801.059570,429.950439 
z"/>
<path fill="#000000" opacity="1.000000" stroke="none" 
	d="
M641.755249,267.120941 
	C642.420288,261.404419 643.090393,256.145935 643.672058,250.877625 
	C643.950562,248.354813 643.909058,245.423004 647.416199,245.546112 
	C650.776672,245.664078 650.493652,248.513443 650.319946,250.819107 
	C649.347534,263.722656 647.811340,276.556824 645.318970,289.264465 
	C644.989685,290.943451 644.567566,292.545532 641.655762,292.788940 
	C638.991089,284.411163 641.442017,275.962799 641.755249,267.120941 
z"/>
<path fill="#000000" opacity="1.000000" stroke="none" 
	d="
M747.603638,374.908875 
	C739.840027,375.010406 732.559875,376.435059 725.236450,375.367584 
	C723.650085,375.136353 721.522583,375.381195 721.456238,373.081787 
	C721.403442,371.249084 723.190430,370.840790 724.661865,370.522705 
	C734.134949,368.474792 743.798096,368.379639 753.412903,367.858185 
	C755.385315,367.751190 757.057983,368.844391 757.135315,371.082306 
	C757.215881,373.414124 755.556152,374.146545 753.525696,374.323792 
	C751.703186,374.482880 749.883484,374.673248 747.603638,374.908875 
z"/>
<path fill="#000000" opacity="1.000000" stroke="none" 
	d="
M399.218994,220.820618 
	C393.192535,213.082291 395.491089,205.762070 404.687103,203.694000 
	C416.996429,200.925751 429.661652,200.468765 442.133850,198.706253 
	C446.397919,198.103683 450.664978,197.395905 455.018829,197.616470 
	C460.902283,197.914581 464.897461,201.489120 465.328796,207.003540 
	C465.796631,212.984695 463.521912,216.376053 457.120361,217.344208 
	C440.886017,219.799484 424.600494,221.931305 408.308136,223.974716 
	C405.149445,224.370895 402.094971,223.102386 399.218994,220.820618 
z"/>
<path fill="#000000" opacity="1.000000" stroke="none" 
	d="
M453.758423,360.036499 
	C445.787262,361.288910 438.240204,362.436615 430.699493,363.625000 
	C428.258698,364.009674 425.564911,364.189178 425.029114,361.227844 
	C424.415039,357.833832 427.423828,357.251556 429.894409,356.858521 
	C465.615753,351.175262 501.337311,345.491974 537.087524,339.995422 
	C539.836487,339.572784 544.411865,337.745026 545.100403,342.103210 
	C545.804565,346.559540 541.102295,345.924744 538.195984,346.396759 
	C510.197266,350.944061 482.189850,355.438232 453.758423,360.036499 
z"/>
<path fill="#000000" opacity="1.000000" stroke="none" 
	d="
M488.424438,279.263367 
	C498.872284,277.633240 508.898346,276.122833 518.922729,274.601318 
	C521.376709,274.228882 524.451599,273.230560 525.042480,276.735626 
	C525.690002,280.576263 522.088196,280.661072 519.616699,281.074188 
	C506.833374,283.210968 494.023285,285.187775 481.221649,287.214874 
	C459.060272,290.724152 436.898438,294.230499 414.736023,297.733490 
	C413.423309,297.940979 412.108917,298.212128 410.787079,298.271393 
	C408.453491,298.376007 405.560760,298.692383 405.330750,295.487640 
	C405.118561,292.530518 407.658600,291.997131 410.166534,291.646851 
	C417.739319,290.589050 425.293732,289.395599 432.845886,288.195831 
	C451.234070,285.274628 469.616974,282.320068 488.424438,279.263367 
z"/>
<path fill="#000000" opacity="1.000000" stroke="none" 
	d="
M563.162231,409.243805 
	C557.648621,412.423248 551.672791,412.185394 546.008850,413.145386 
	C518.183960,417.861572 490.308746,422.281036 462.449158,426.791748 
	C458.350037,427.455444 454.216339,427.928223 450.141785,428.713135 
	C447.414215,429.238586 444.650269,429.254669 444.117950,426.164459 
	C443.527618,422.737305 446.846100,422.376709 449.194946,421.991943 
	C460.500732,420.139893 471.846161,418.530975 483.157043,416.708649 
	C506.601135,412.931519 530.030029,409.059906 553.472351,405.271759 
	C555.758972,404.902252 558.096375,404.675171 560.409119,404.683411 
	C563.162476,404.693207 564.407166,406.081573 563.162231,409.243805 
z"/>
<path fill="#000000" opacity="1.000000" stroke="none" 
	d="
M420.582642,524.785889 
	C409.209106,522.343628 402.111725,513.891418 402.954224,504.168152 
	C403.890778,493.359772 412.228851,485.813293 423.363586,485.696411 
	C434.254272,485.582062 442.823303,493.043640 444.192352,503.833221 
	C445.727753,515.934021 434.630859,526.005371 420.582642,524.785889 
M425.786469,517.973145 
	C433.261963,516.310486 437.922577,511.051270 437.575226,504.670258 
	C437.226135,498.256897 431.437042,492.751068 424.624878,492.353607 
	C417.117188,491.915588 411.251312,496.465118 409.902802,503.772003 
	C408.483612,511.461884 415.441681,518.055664 425.786469,517.973145 
z"/>
<path fill="#000000" opacity="1.000000" stroke="none" 
	d="
M460.363037,559.891602 
	C464.860718,567.759460 464.663696,575.316895 459.569122,582.231750 
	C454.848633,588.638855 447.952942,591.079285 440.156677,589.879028 
	C431.802673,588.593018 425.676880,584.155884 423.230591,575.678162 
	C420.848785,567.423828 424.154114,558.785339 431.239838,554.324890 
	C439.548767,549.094421 449.671570,549.706360 456.746765,555.937134 
	C457.987244,557.029541 459.018677,558.359253 460.363037,559.891602 
M434.243591,580.326721 
	C436.224792,581.939209 438.543640,582.856506 440.998779,583.356323 
	C450.046143,585.198059 458.552826,576.394287 456.233459,567.640320 
	C454.734741,561.983704 450.320099,558.066833 444.690430,557.399048 
	C439.241150,556.752563 433.264160,559.964539 430.607605,564.966858 
	C428.008362,569.861328 428.979980,574.554993 434.243591,580.326721 
z"/>
<path fill="#000000" opacity="1.000000" stroke="none" 
	d="
M398.715393,360.213013 
	C405.668335,367.497559 407.196899,376.006042 403.177795,383.735138 
	C399.173981,391.434784 389.720886,395.815887 380.719391,394.143585 
	C372.338898,392.586670 365.467224,385.395905 364.238464,376.897400 
	C362.188171,362.716309 378.132904,351.178711 392.330566,356.648865 
	C394.474548,357.474884 396.406097,358.852264 398.715393,360.213013 
M394.209412,365.218536 
	C392.937225,364.454071 391.741547,363.496765 390.380341,362.956696 
	C381.991669,359.628448 372.358643,364.445618 371.326447,372.409943 
	C370.434143,379.295319 373.191437,384.206207 379.370850,386.737305 
	C385.454987,389.229340 392.505188,387.256378 396.229218,382.019409 
	C399.958313,376.775330 399.482147,371.547852 394.209412,365.218536 
z"/>
<path fill="#000000" opacity="1.000000" stroke="none" 
	d="
M349.704468,296.751526 
	C361.937897,285.722412 379.371033,288.892273 384.651459,302.689850 
	C387.525116,310.198578 385.821350,316.964539 380.819855,322.600555 
	C375.781464,328.278137 368.873444,330.571106 361.367889,328.910217 
	C345.680786,325.438812 340.011993,309.936615 349.704468,296.751526 
M370.105835,321.825745 
	C376.837708,318.580353 380.471527,312.871552 379.211334,307.520752 
	C377.615631,300.745453 371.781799,296.153381 365.125183,296.432922 
	C358.355713,296.717194 352.995300,301.319580 351.880768,307.804382 
	C350.269989,317.176514 358.621277,324.013184 370.105835,321.825745 
z"/>
<path fill="#000000" opacity="1.000000" stroke="none" 
	d="
M383.686737,437.330200 
	C386.700775,424.445496 398.314392,417.714172 410.417603,421.412781 
	C421.694946,424.859009 427.168549,436.089386 422.998108,447.224701 
	C419.617188,456.251984 410.070953,461.185181 399.206909,459.166168 
	C389.087799,457.285583 382.226593,446.799988 383.686737,437.330200 
M417.669189,441.132233 
	C417.549377,431.007996 410.268097,425.236237 400.424530,427.462646 
	C395.330048,428.614960 391.013214,433.137848 390.339233,438.029297 
	C389.552734,443.737549 392.056763,448.496857 397.270599,451.203613 
	C405.648407,455.552917 414.593994,451.472321 417.669189,441.132233 
z"/>
<path fill="#000000" opacity="1.000000" stroke="none" 
	d="
M412.482208,316.522430 
	C410.517090,315.801575 409.531952,314.719269 410.027924,312.971710 
	C410.775665,310.336914 413.338196,310.317413 415.319489,309.946777 
	C425.271057,308.085052 435.260132,306.423553 445.238617,304.706604 
	C451.944275,303.552795 458.653137,302.417297 465.363342,301.290009 
	C466.506439,301.097961 467.672668,300.817810 468.811920,300.879486 
	C470.720673,300.982819 472.670044,301.605835 472.897064,303.776306 
	C473.140961,306.107880 471.125946,306.793152 469.298370,307.148773 
	C464.412598,308.099396 459.514862,309.003937 454.598724,309.779907 
	C440.673584,311.977936 426.941376,315.351837 412.482208,316.522430 
z"/>
<path fill="#000000" opacity="1.000000" stroke="none" 
	d="
M473.040894,375.286285 
	C460.170074,377.447968 447.721924,379.518860 435.301941,381.747040 
	C432.510376,382.247833 430.004517,382.241150 429.463257,379.009949 
	C428.955200,375.977173 431.658325,375.799988 433.787170,375.428864 
	C450.314056,372.547699 466.823090,369.552826 483.390350,366.925446 
	C486.152008,366.487457 490.954987,364.795166 491.621368,368.764526 
	C492.410858,373.467010 487.094299,372.407043 484.238129,373.222931 
	C480.742065,374.221649 477.069824,374.603668 473.040894,375.286285 
z"/>
<path fill="#000000" opacity="1.000000" stroke="none" 
	d="
M459.052490,446.258484 
	C456.987305,446.587250 455.361572,446.978790 453.713348,447.138794 
	C451.478210,447.355682 449.044464,447.328674 448.764740,444.392395 
	C448.528381,441.911346 450.488373,441.062683 452.626862,440.690704 
	C460.149414,439.382324 467.664825,438.032318 475.192535,436.754333 
	C484.191956,435.226562 493.201294,433.757080 502.206055,432.260742 
	C503.188904,432.097473 504.166107,431.812317 505.152771,431.777618 
	C507.497894,431.695068 510.397369,431.489685 510.722473,434.512604 
	C511.023376,437.310577 508.085693,437.701996 506.079834,438.063507 
	C492.194855,440.566162 478.282501,442.916718 464.379822,445.321289 
	C462.744415,445.604156 461.114410,445.918365 459.052490,446.258484 
z"/>
<path fill="#000000" opacity="1.000000" stroke="none" 
	d="
M496.644653,570.906555 
	C498.705505,571.546692 500.154266,572.474060 499.964294,574.424500 
	C499.780121,576.315735 498.260376,577.132874 496.534546,577.469604 
	C494.927887,577.783142 493.313965,578.133606 491.687500,578.253052 
	C489.469482,578.415955 487.721100,577.656616 487.567780,575.108032 
	C487.432220,572.854370 488.789978,571.887878 490.879608,571.637512 
	C492.670837,571.422913 494.451477,571.119812 496.644653,570.906555 
z"/>
<path fill="#000000" opacity="1.000000" stroke="none" 
	d="
M239.404999,523.572632 
	C235.854248,525.136292 232.803299,526.724487 230.528244,529.581299 
	C229.162582,531.296326 227.131851,533.039917 225.136642,532.913452 
	C219.742477,532.571228 217.152405,535.895508 213.765549,539.251892 
	C208.002472,544.962952 200.208023,544.927856 192.613144,544.081360 
	C189.821304,543.770203 187.075897,542.986511 184.330643,542.329285 
	C181.737854,541.708435 178.353897,541.128662 179.284988,537.578186 
	C180.266464,533.835571 183.693649,535.508728 186.067810,536.083740 
	C189.965790,537.027954 193.828537,537.876953 197.865799,537.844727 
	C204.950027,537.788208 210.622513,535.711853 212.845291,528.118286 
	C213.784973,524.908142 216.233078,524.679443 218.836914,525.863647 
	C222.109863,527.352112 224.200958,525.984558 226.833817,523.952881 
	C235.483032,517.278625 244.462234,511.031128 253.344498,504.661316 
	C254.139389,504.091248 255.128555,503.761932 256.065247,503.426208 
	C257.938904,502.754761 260.166321,501.722351 261.336548,504.104858 
	C262.476685,506.426086 260.327087,507.710022 258.754181,508.872253 
	C256.347168,510.650757 253.749329,512.175781 251.381500,514.001587 
	C247.431396,517.047424 243.599197,520.246155 239.404999,523.572632 
z"/>
<path fill="#000000" opacity="1.000000" stroke="none" 
	d="
M222.129425,561.112305 
	C237.035126,548.198975 252.157043,536.195740 269.353241,527.078003 
	C270.969360,526.221130 272.606049,525.381592 274.299561,524.698364 
	C275.769226,524.105408 277.330200,524.017883 278.218201,525.694885 
	C279.059479,527.283752 278.367035,528.685608 277.106659,529.665405 
	C275.534882,530.887207 273.857910,532.000183 272.128204,532.988220 
	C254.676300,542.957031 238.996872,555.307495 224.047256,568.647644 
	C222.806122,569.755127 221.528992,570.838440 220.171249,571.794922 
	C218.513931,572.962341 216.700455,573.287170 215.266739,571.511047 
	C213.883270,569.797302 214.273468,568.109070 215.890961,566.672974 
	C217.884628,564.902893 219.871735,563.125549 222.129425,561.112305 
z"/>
<path fill="#000000" opacity="1.000000" stroke="none" 
	d="
M282.907654,558.983276 
	C270.049225,569.766235 257.455017,580.325684 244.820267,590.836426 
	C243.122253,592.248962 241.035110,593.555420 239.063828,591.559875 
	C237.266479,589.740356 238.303680,587.835815 239.922729,586.376526 
	C252.511917,575.029297 265.442627,564.100098 279.441986,554.503662 
	C281.013245,553.426575 282.874512,551.618530 284.691010,553.722229 
	C286.494080,555.810425 284.555756,557.324097 282.907654,558.983276 
z"/>
<path fill="#000000" opacity="1.000000" stroke="none" 
	d="
M276.783997,592.612305 
	C275.672699,595.364136 274.009125,597.179321 271.644470,598.225159 
	C270.196289,598.865662 268.685944,598.823486 267.568054,597.450928 
	C266.471130,596.104309 266.589722,594.662170 267.561707,593.322388 
	C269.149231,591.134094 270.991119,589.075195 273.876190,588.964722 
	C275.785004,588.891602 276.780548,590.318298 276.783997,592.612305 
z"/>
<path fill="#000000" opacity="1.000000" stroke="none" 
	d="
M294.552673,734.272949 
	C291.852753,734.684326 291.001648,732.983032 290.242462,731.294434 
	C287.856873,725.988281 285.511047,720.664062 283.189789,715.329468 
	C282.378448,713.464905 281.467163,711.324036 283.927917,710.122070 
	C286.288086,708.969238 288.175537,710.168945 289.224976,712.391418 
	C291.193817,716.560974 293.022522,720.796631 295.157990,725.558960 
	C299.092010,722.940063 302.631287,720.560303 306.194214,718.216431 
	C319.258545,709.622192 332.486633,701.306580 346.635712,694.566772 
	C347.686584,694.066101 348.701813,693.456055 349.798615,693.093811 
	C351.865295,692.411194 354.286438,691.531982 355.488525,694.142456 
	C356.677551,696.724609 354.150177,697.572815 352.519165,698.481506 
	C335.953552,707.711060 319.472137,717.073425 303.924561,727.979553 
	C300.932953,730.078064 297.903290,732.122253 294.552673,734.272949 
z"/>
<path fill="#000000" opacity="1.000000" stroke="none" 
	d="
M551.029785,671.794312 
	C554.915405,671.291260 558.362732,670.846069 561.808411,670.388000 
	C564.059265,670.088867 566.455872,670.013794 567.020508,672.757874 
	C567.591492,675.532288 565.304749,676.635376 563.127808,676.959534 
	C552.821838,678.494019 542.493896,679.884949 532.162170,681.238647 
	C530.123840,681.505737 527.910767,681.304688 527.498596,678.702942 
	C527.046326,675.847900 529.208008,674.958618 531.441711,674.610107 
	C537.813354,673.615967 544.206238,672.758118 551.029785,671.794312 
z"/>
</svg>